<svg xmlns="http://www.w3.org/2000/svg" viewBox="0 0 94.926 94.926">
    <path
      d=" M 53.789 47.463 L 82.462 18.792 C 83.079 18.174 83.079 17.173 82.462 16.555 L 78.373 12.463 C 78.076 12.167 77.673 12 77.253 12 C 76.833 12 76.431 12.167 76.134 12.463 L 47.462 41.135 L 18.79 12.463 C 18.196 11.869 17.145 11.87 16.552 12.463 L 12.464 16.555 C 11.846 17.173 11.846 18.174 12.464 18.792 L 41.136 47.463 L 12.464 76.134 C 11.846 76.752 11.846 77.753 12.464 78.371 L 16.553 82.463 C 16.85 82.759 17.253 82.926 17.672 82.926 C 18.092 82.926 18.494 82.759 18.791 82.463 L 47.463 53.791 L 76.135 82.463 C 76.431 82.759 76.835 82.926 77.254 82.926 C 77.673 82.926 78.077 82.759 78.373 82.463 L 82.463 78.371 C 83.08 77.753 83.08 76.752 82.463 76.134 L 53.789 47.463 Z "
      fill="currentcolor"
    />
</svg>