<svg xmlns="http://www.w3.org/2000/svg" width="22" height="22.001" viewBox="0 0 22 22.001">
  <path id="ic_update_24px" d="M25,11.7H16.714l3.349-3.447A8.6,8.6,0,0,0,7.987,8.134a8.4,8.4,0,0,0,0,11.966,8.58,8.58,0,0,0,12.076,0,7.961,7.961,0,0,0,2.494-5.977H25a11.417,11.417,0,0,1-3.227,7.688,11.067,11.067,0,0,1-15.548,0A10.8,10.8,0,0,1,6.2,6.435a10.985,10.985,0,0,1,15.462,0L25,3ZM14.612,9.112v5.195l4.278,2.542-.88,1.479-5.231-3.1V9.112Z" transform="translate(-3.001 -3)" fill="rgba(255,255,255,0.8)"/>
</svg>
