<svg xmlns="http://www.w3.org/2000/svg" width="22" height="22.617" viewBox="0 0 22 22.617">
  <path id="ic_settings_24px" d="M21.675,14.417a8.813,8.813,0,0,0,.079-1.108,8.813,8.813,0,0,0-.079-1.108l2.386-1.866a.571.571,0,0,0,.136-.724L21.936,5.7a.568.568,0,0,0-.69-.249L18.43,6.58a8.262,8.262,0,0,0-1.911-1.108l-.43-3A.551.551,0,0,0,15.535,2H11.011a.551.551,0,0,0-.554.475l-.43,3A8.688,8.688,0,0,0,8.116,6.58L5.3,5.449a.552.552,0,0,0-.69.249L2.349,9.611a.558.558,0,0,0,.136.724L4.871,12.2a8.968,8.968,0,0,0-.079,1.108,8.968,8.968,0,0,0,.079,1.108L2.485,16.283a.571.571,0,0,0-.136.724l2.262,3.913a.568.568,0,0,0,.69.249l2.816-1.131a8.262,8.262,0,0,0,1.911,1.108l.43,3a.551.551,0,0,0,.554.475h4.523a.551.551,0,0,0,.554-.475l.43-3a8.688,8.688,0,0,0,1.911-1.108l2.816,1.131a.552.552,0,0,0,.69-.249L24.2,17.006a.571.571,0,0,0-.136-.724Zm-8.4,2.85a3.958,3.958,0,1,1,3.958-3.958A3.962,3.962,0,0,1,13.273,17.267Z" transform="translate(-2.271 -2)" fill="rgba(255,255,255,0.8)"/>
</svg>
