<svg xmlns="http://www.w3.org/2000/svg" viewBox="0 0 490 490">
  <path d="M468.2 423.4 L 21.8 423.4 C 9.8 423.4 0 433.2 0 445.2 C 0 457.2 9.8 467 21.8 467 L 468.2 467 C 480.2 467 490 457.2 490 445.2 C 490 433.2 480.2 423.4 468.2 423.4Z" fill="currentcolor"/>
  <path d="M303.256 171.976 C 313.056 178.476 326.156 176.376 332.656 166.576 L 365.356 120.876 L 365.356 347.276 C 365.356 359.276 375.156 369.076 387.156 369.076 C 399.156 369.076 408.956 359.276 408.956 347.276 L 408.956 120.776 L 441.656 166.476 C 448.156 176.276 461.256 178.476 471.056 171.876 C 480.856 165.376 483.056 152.276 476.456 142.476 L 404.556 41.176 C 396.856 30.276 379.756 28.576 369.756 42.276 L 297.856 142.476 C 291.356 152.376 293.456 165.476 303.256 171.976Z" fill="currentcolor"/>
  <path d="M291.1 349.5 L 171 36.7 C 167.8 28.5 159.9 23 151.1 23 C 142.3 23 134.4 28.4 131.2 36.7 L 11.2 349.5 C 7 360.5 12.5 372.8 23.5 377.1 C 26 378.1 28.6 378.5 31.1 378.5 C 39.7 378.5 47.8 373.3 51 364.8 L 81.9 284.4 L 220.5 284.4 L 251.3 364.8 C 255.5 375.8 267.9 381.3 278.9 377.1 C 289.8 372.8 295.3 360.5 291.1 349.5 Z  M 98.2 241.7 L 151.1 103.9 L 204 241.8 L 98.2 241.8 L 98.2 241.7 L 98.2 241.7Z" fill="currentcolor"/>
</svg>
