<svg xmlns="http://www.w3.org/2000/svg" viewBox="0 0 490 490">
  <path d="M468.2 423.4 L 21.8 423.4 C 9.8 423.4 0 433.2 0 445.2 C 0 457.2 9.8 467 21.8 467 L 468.2 467 C 480.2 467 490 457.2 490 445.2 C 490 433.2 480.2 423.4 468.2 423.4Z" fill="currentcolor"/>
  <path d="M471.1,229.6c-9.8-6.5-22.9-4.4-29.4,5.4L409,280.7V54.3c0-12-9.8-21.8-21.8-21.8s-21.8,9.8-21.8,21.8v226.5l-32.7-45.7c-6.5-9.8-19.6-12-29.4-5.4c-9.8,6.5-12,19.6-5.4,29.4l71.9,101.3c7.7,10.9,24.8,12.6,34.8-1.1l71.9-100.2C483,249.2,480.9,236.1,471.1,229.6Z" fill="currentcolor"/>
  <path d="M291.1 349.5 L 171 36.7 C 167.8 28.5 159.9 23 151.1 23 C 142.3 23 134.4 28.4 131.2 36.7 L 11.2 349.5 C 7 360.5 12.5 372.8 23.5 377.1 C 26 378.1 28.6 378.5 31.1 378.5 C 39.7 378.5 47.8 373.3 51 364.8 L 81.9 284.4 L 220.5 284.4 L 251.3 364.8 C 255.5 375.8 267.9 381.3 278.9 377.1 C 289.8 372.8 295.3 360.5 291.1 349.5 Z  M 98.2 241.7 L 151.1 103.9 L 204 241.8 L 98.2 241.8 L 98.2 241.7 L 98.2 241.7Z" fill="currentcolor"/>
</svg>